<svg xmlns="http://www.w3.org/2000/svg" width="24" height="24" fill="none" viewBox="0 0 24 24"><path fill="#1DA1F2" d="M24 4.557a9.83 9.83 0 0 1-2.828.775 4.932 4.932 0 0 0 2.165-2.724c-.951.564-2.005.974-3.127 1.195a4.916 4.916 0 0 0-8.38 4.482C7.691 8.095 4.066 6.13 1.64 3.161c-.542.929-.856 2.01-.857 3.17 0 2.188 1.115 4.117 2.823 5.254a4.904 4.904 0 0 1-2.229-.616c-.054 2.281 1.581 4.415 3.949 4.89a4.936 4.936 0 0 1-2.224.084c.627 1.956 2.444 3.377 4.6 3.417A9.867 9.867 0 0 1 0 21.543a13.94 13.94 0 0 0 7.548 2.209c9.058 0 14.009-7.514 14.009-14.009 0-.213-.005-.425-.014-.636A10.012 10.012 0 0 0 24 4.557z"/></svg>
